<svg xmlns="http://www.w3.org/2000/svg" xmlns:xlink="http://www.w3.org/1999/xlink" width="3000" zoomAndPan="magnify" viewBox="0 0 2250 749.999995" height="1000" preserveAspectRatio="xMidYMid meet" version="1.0"><defs><g/><clipPath id="74a30e1851"><path d="M 4 143.238281 L 511.632812 143.238281 L 511.632812 535.695312 L 4 535.695312 Z M 4 143.238281 " clip-rule="nonzero"/></clipPath><clipPath id="965138359c"><rect x="0" width="2176" y="0" height="616"/></clipPath></defs><g transform="matrix(1, 0, 0, 1, 35, 67)"><g clip-path="url(#965138359c)"><g clip-path="url(#74a30e1851)"><path fill="#0fa3b1" d="M 447.839844 143.179688 L 277.9375 143.179688 C 276.898438 143.179688 275.855469 143.203125 274.816406 143.253906 C 273.777344 143.304688 272.738281 143.378906 271.703125 143.480469 C 270.664062 143.582031 269.632812 143.707031 268.601562 143.859375 C 267.570312 144.011719 266.546875 144.191406 265.523438 144.390625 C 264.503906 144.59375 263.488281 144.820312 262.476562 145.074219 C 261.464844 145.324219 260.464844 145.601562 259.464844 145.902344 C 258.46875 146.203125 257.480469 146.53125 256.5 146.878906 C 255.519531 147.230469 254.546875 147.605469 253.585938 148 C 252.621094 148.398438 251.671875 148.820312 250.730469 149.265625 C 249.789062 149.707031 248.855469 150.175781 247.9375 150.664062 C 247.019531 151.15625 246.113281 151.667969 245.21875 152.203125 C 244.324219 152.738281 243.445312 153.292969 242.578125 153.871094 C 241.714844 154.449219 240.863281 155.046875 240.023438 155.667969 C 239.1875 156.285156 238.367188 156.925781 237.5625 157.585938 C 236.753906 158.246094 235.96875 158.925781 235.195312 159.625 C 234.421875 160.320312 233.667969 161.039062 232.929688 161.773438 C 232.195312 162.511719 231.476562 163.261719 230.777344 164.035156 C 230.074219 164.804688 229.394531 165.59375 228.734375 166.398438 C 228.074219 167.203125 227.429688 168.023438 226.808594 168.855469 C 226.1875 169.691406 225.589844 170.542969 225.007812 171.410156 C 224.429688 172.273438 223.871094 173.152344 223.335938 174.046875 C 222.800781 174.9375 222.285156 175.84375 221.792969 176.761719 C 221.304688 177.679688 220.832031 178.609375 220.386719 179.550781 C 219.941406 180.492188 219.519531 181.441406 219.121094 182.402344 C 218.71875 183.363281 218.34375 184.335938 217.992188 185.316406 C 217.640625 186.296875 217.3125 187.285156 217.011719 188.28125 C 216.707031 189.277344 216.429688 190.28125 216.175781 191.289062 C 215.921875 192.300781 215.691406 193.316406 215.488281 194.335938 C 215.285156 195.355469 215.105469 196.382812 214.953125 197.414062 C 214.796875 198.441406 214.667969 199.476562 214.566406 200.511719 C 214.464844 201.546875 214.386719 202.585938 214.332031 203.625 C 214.28125 204.664062 214.253906 205.707031 214.253906 206.746094 L 214.253906 241.898438 L 68.3125 241.898438 C 67.273438 241.902344 66.230469 241.925781 65.191406 241.980469 C 64.152344 242.03125 63.113281 242.109375 62.074219 242.210938 C 61.039062 242.316406 60.003906 242.441406 58.976562 242.597656 C 57.945312 242.75 56.917969 242.929688 55.898438 243.132812 C 54.875 243.335938 53.859375 243.566406 52.851562 243.820312 C 51.839844 244.074219 50.835938 244.351562 49.839844 244.65625 C 48.84375 244.957031 47.855469 245.285156 46.875 245.636719 C 45.894531 245.988281 44.921875 246.363281 43.960938 246.765625 C 43 247.164062 42.046875 247.585938 41.105469 248.03125 C 40.164062 248.476562 39.234375 248.945312 38.316406 249.4375 C 37.398438 249.929688 36.492188 250.445312 35.597656 250.980469 C 34.707031 251.515625 33.828125 252.074219 32.960938 252.652344 C 32.09375 253.230469 31.246094 253.832031 30.40625 254.453125 C 29.570312 255.074219 28.75 255.714844 27.945312 256.375 C 27.140625 257.039062 26.351562 257.71875 25.582031 258.417969 C 24.808594 259.117188 24.054688 259.835938 23.320312 260.574219 C 22.585938 261.308594 21.867188 262.0625 21.167969 262.835938 C 20.46875 263.609375 19.789062 264.398438 19.128906 265.203125 C 18.46875 266.007812 17.828125 266.828125 17.207031 267.667969 C 16.585938 268.503906 15.988281 269.355469 15.410156 270.222656 C 14.832031 271.085938 14.273438 271.96875 13.738281 272.859375 C 13.203125 273.753906 12.691406 274.660156 12.199219 275.578125 C 11.707031 276.5 11.242188 277.429688 10.796875 278.371094 C 10.351562 279.3125 9.929688 280.265625 9.53125 281.226562 C 9.132812 282.1875 8.757812 283.160156 8.40625 284.140625 C 8.054688 285.121094 7.730469 286.109375 7.425781 287.109375 C 7.125 288.105469 6.847656 289.109375 6.59375 290.117188 C 6.339844 291.128906 6.113281 292.144531 5.910156 293.167969 C 5.707031 294.1875 5.53125 295.214844 5.375 296.246094 C 5.222656 297.273438 5.097656 298.308594 4.996094 299.34375 C 4.890625 300.382812 4.816406 301.421875 4.765625 302.460938 C 4.714844 303.5 4.6875 304.542969 4.6875 305.582031 L 4.6875 402.136719 C 4.691406 404.035156 4.777344 405.929688 4.949219 407.820312 C 5.121094 409.710938 5.378906 411.589844 5.71875 413.457031 C 6.058594 415.324219 6.480469 417.175781 6.988281 419.003906 C 7.492188 420.835938 8.078125 422.636719 8.746094 424.417969 C 9.410156 426.195312 10.15625 427.9375 10.980469 429.648438 C 11.800781 431.359375 12.699219 433.03125 13.671875 434.664062 C 14.644531 436.292969 15.6875 437.878906 16.800781 439.414062 C 17.914062 440.953125 19.097656 442.4375 20.34375 443.867188 C 21.589844 445.300781 22.898438 446.675781 24.265625 447.988281 C 25.636719 449.304688 27.0625 450.554688 28.542969 451.742188 C 30.027344 452.929688 31.558594 454.050781 33.140625 455.097656 C 34.71875 456.148438 36.34375 457.128906 38.015625 458.03125 C 39.683594 458.9375 41.390625 459.765625 43.132812 460.519531 C 44.875 461.269531 46.648438 461.945312 48.453125 462.539062 C 50.257812 463.132812 52.082031 463.644531 53.929688 464.074219 C 55.78125 464.503906 57.644531 464.851562 59.527344 465.117188 L 59.527344 527.101562 C 59.53125 527.886719 59.636719 528.65625 59.847656 529.410156 C 60.058594 530.164062 60.363281 530.878906 60.765625 531.550781 C 61.167969 532.222656 61.648438 532.832031 62.214844 533.375 C 62.777344 533.921875 63.402344 534.378906 64.089844 534.757812 C 64.777344 535.132812 65.503906 535.414062 66.265625 535.59375 C 67.027344 535.777344 67.800781 535.859375 68.582031 535.832031 C 69.367188 535.808594 70.132812 535.683594 70.882812 535.453125 C 71.632812 535.226562 72.339844 534.902344 73 534.484375 L 181.914062 465.703125 L 238.625 465.703125 C 240.703125 465.691406 242.773438 465.582031 244.835938 465.371094 C 246.902344 465.15625 248.953125 464.84375 250.984375 464.429688 C 253.019531 464.019531 255.03125 463.507812 257.011719 462.894531 C 258.996094 462.285156 260.945312 461.582031 262.863281 460.78125 C 264.777344 459.980469 266.648438 459.085938 268.476562 458.101562 C 270.304688 457.117188 272.078125 456.046875 273.800781 454.886719 C 275.523438 453.730469 277.1875 452.492188 278.785156 451.167969 C 280.386719 449.847656 281.921875 448.453125 283.386719 446.980469 C 284.851562 445.511719 286.238281 443.96875 287.550781 442.363281 C 288.867188 440.757812 290.097656 439.089844 291.25 437.359375 C 292.398438 435.632812 293.460938 433.851562 294.4375 432.019531 C 295.414062 430.1875 296.296875 428.3125 297.089844 426.394531 C 297.882812 424.476562 298.578125 422.523438 299.179688 420.535156 C 299.78125 418.546875 300.28125 416.535156 300.6875 414.5 C 301.089844 412.464844 301.394531 410.414062 301.597656 408.347656 C 301.800781 406.28125 301.898438 404.210938 301.898438 402.136719 L 301.898438 366.984375 L 334.535156 366.984375 L 443.035156 435.648438 C 444.472656 436.535156 446.035156 436.984375 447.722656 436.996094 C 449.234375 436.992188 450.660156 436.640625 452 435.941406 C 452.6875 435.554688 453.308594 435.085938 453.871094 434.535156 C 454.429688 433.980469 454.910156 433.367188 455.304688 432.6875 C 455.703125 432.007812 456.003906 431.285156 456.207031 430.527344 C 456.414062 429.765625 456.511719 428.992188 456.511719 428.207031 L 456.511719 366.28125 C 458.390625 366.015625 460.257812 365.667969 462.105469 365.238281 C 463.953125 364.808594 465.78125 364.296875 467.585938 363.703125 C 469.386719 363.109375 471.160156 362.433594 472.902344 361.683594 C 474.648438 360.929688 476.351562 360.101562 478.023438 359.195312 C 479.691406 358.292969 481.316406 357.3125 482.898438 356.261719 C 484.480469 355.210938 486.011719 354.09375 487.492188 352.90625 C 488.972656 351.71875 490.398438 350.46875 491.769531 349.152344 C 493.140625 347.835938 494.449219 346.464844 495.695312 345.03125 C 496.941406 343.601562 498.121094 342.117188 499.234375 340.578125 C 500.347656 339.039062 501.390625 337.457031 502.363281 335.824219 C 503.335938 334.195312 504.234375 332.523438 505.058594 330.8125 C 505.878906 329.101562 506.625 327.359375 507.292969 325.578125 C 507.957031 323.800781 508.546875 322 509.050781 320.167969 C 509.554688 318.339844 509.980469 316.488281 510.320312 314.621094 C 510.660156 312.753906 510.914062 310.875 511.085938 308.984375 C 511.257812 307.09375 511.347656 305.199219 511.347656 303.300781 L 511.347656 206.746094 C 511.34375 204.667969 511.238281 202.59375 511.03125 200.523438 C 510.824219 198.453125 510.519531 196.402344 510.109375 194.363281 C 509.703125 192.324219 509.195312 190.308594 508.589844 188.320312 C 507.984375 186.328125 507.28125 184.375 506.484375 182.453125 C 505.6875 180.53125 504.796875 178.65625 503.816406 176.820312 C 502.835938 174.988281 501.769531 173.207031 500.613281 171.476562 C 499.457031 169.75 498.21875 168.078125 496.902344 166.472656 C 495.582031 164.863281 494.1875 163.324219 492.71875 161.855469 C 491.246094 160.382812 489.710938 158.988281 488.101562 157.667969 C 486.496094 156.34375 484.828125 155.105469 483.101562 153.949219 C 481.371094 152.792969 479.59375 151.722656 477.757812 150.738281 C 475.925781 149.757812 474.050781 148.867188 472.128906 148.066406 C 470.210938 147.269531 468.257812 146.566406 466.265625 145.957031 C 464.277344 145.351562 462.265625 144.839844 460.226562 144.429688 C 458.1875 144.019531 456.132812 143.710938 454.0625 143.503906 C 451.996094 143.292969 449.921875 143.1875 447.839844 143.179688 Z M 284.324219 402.136719 C 284.320312 403.640625 284.246094 405.144531 284.097656 406.640625 C 283.949219 408.140625 283.726562 409.628906 283.429688 411.105469 C 283.136719 412.582031 282.769531 414.039062 282.332031 415.480469 C 281.890625 416.917969 281.386719 418.335938 280.808594 419.726562 C 280.230469 421.117188 279.585938 422.476562 278.875 423.804688 C 278.164062 425.132812 277.390625 426.421875 276.554688 427.671875 C 275.71875 428.925781 274.820312 430.132812 273.867188 431.296875 C 272.910156 432.460938 271.902344 433.574219 270.835938 434.636719 C 269.773438 435.703125 268.65625 436.714844 267.492188 437.667969 C 266.332031 438.625 265.121094 439.519531 263.871094 440.355469 C 262.617188 441.195312 261.328125 441.96875 260 442.679688 C 258.675781 443.390625 257.316406 444.03125 255.925781 444.609375 C 254.535156 445.1875 253.117188 445.695312 251.675781 446.132812 C 250.238281 446.570312 248.777344 446.9375 247.300781 447.234375 C 245.824219 447.527344 244.335938 447.75 242.839844 447.898438 C 241.339844 448.046875 239.839844 448.125 238.332031 448.125 L 179.101562 448.125 C 177.378906 448.113281 175.796875 448.582031 174.355469 449.53125 L 77.160156 511.105469 L 77.160156 456.679688 C 77.160156 456.101562 77.105469 455.53125 76.992188 454.964844 C 76.878906 454.398438 76.710938 453.851562 76.492188 453.316406 C 76.269531 452.785156 76 452.277344 75.679688 451.796875 C 75.359375 451.316406 74.996094 450.875 74.585938 450.464844 C 74.179688 450.058594 73.734375 449.695312 73.253906 449.371094 C 72.773438 449.050781 72.269531 448.78125 71.734375 448.5625 C 71.203125 448.339844 70.652344 448.171875 70.085938 448.0625 C 69.519531 447.949219 68.949219 447.890625 68.371094 447.890625 C 66.867188 447.890625 65.363281 447.8125 63.863281 447.664062 C 62.363281 447.515625 60.878906 447.292969 59.398438 447 C 57.921875 446.703125 56.464844 446.335938 55.023438 445.898438 C 53.582031 445.460938 52.164062 444.953125 50.773438 444.375 C 49.382812 443.800781 48.019531 443.15625 46.691406 442.445312 C 45.363281 441.734375 44.074219 440.960938 42.820312 440.125 C 41.566406 439.289062 40.359375 438.394531 39.195312 437.4375 C 38.03125 436.480469 36.914062 435.472656 35.847656 434.40625 C 34.78125 433.34375 33.769531 432.230469 32.816406 431.066406 C 31.859375 429.902344 30.960938 428.695312 30.121094 427.441406 C 29.285156 426.191406 28.507812 424.902344 27.796875 423.574219 C 27.085938 422.246094 26.4375 420.886719 25.859375 419.496094 C 25.28125 418.105469 24.773438 416.691406 24.332031 415.25 C 23.894531 413.808594 23.523438 412.347656 23.226562 410.871094 C 22.929688 409.394531 22.707031 407.90625 22.554688 406.410156 C 22.402344 404.910156 22.328125 403.40625 22.324219 401.902344 L 22.324219 305.582031 C 22.328125 304.078125 22.402344 302.574219 22.554688 301.074219 C 22.707031 299.578125 22.929688 298.089844 23.226562 296.613281 C 23.523438 295.136719 23.894531 293.675781 24.332031 292.234375 C 24.773438 290.796875 25.28125 289.378906 25.859375 287.988281 C 26.4375 286.597656 27.085938 285.238281 27.796875 283.910156 C 28.507812 282.582031 29.285156 281.292969 30.121094 280.042969 C 30.960938 278.789062 31.859375 277.582031 32.816406 276.417969 C 33.769531 275.253906 34.78125 274.140625 35.847656 273.078125 C 36.914062 272.011719 38.03125 271.003906 39.195312 270.046875 C 40.359375 269.09375 41.566406 268.195312 42.820312 267.359375 C 44.074219 266.523438 45.363281 265.75 46.691406 265.039062 C 48.019531 264.328125 49.382812 263.683594 50.773438 263.109375 C 52.164062 262.53125 53.582031 262.023438 55.023438 261.585938 C 56.464844 261.148438 57.921875 260.78125 59.398438 260.484375 C 60.878906 260.191406 62.363281 259.96875 63.863281 259.820312 C 65.363281 259.671875 66.867188 259.59375 68.371094 259.59375 L 238.273438 259.59375 C 239.78125 259.59375 241.28125 259.671875 242.78125 259.820312 C 244.277344 259.96875 245.765625 260.191406 247.242188 260.488281 C 248.71875 260.78125 250.179688 261.148438 251.617188 261.585938 C 253.058594 262.023438 254.476562 262.53125 255.867188 263.109375 C 257.257812 263.6875 258.617188 264.332031 259.941406 265.039062 C 261.269531 265.75 262.558594 266.523438 263.8125 267.363281 C 265.0625 268.199219 266.269531 269.09375 267.433594 270.050781 C 268.597656 271.003906 269.714844 272.015625 270.777344 273.082031 C 271.84375 274.144531 272.851562 275.257812 273.808594 276.421875 C 274.761719 277.585938 275.660156 278.792969 276.496094 280.046875 C 277.332031 281.296875 278.105469 282.585938 278.816406 283.914062 C 279.527344 285.242188 280.171875 286.601562 280.75 287.992188 C 281.324219 289.382812 281.832031 290.800781 282.273438 292.238281 C 282.710938 293.679688 283.078125 295.140625 283.371094 296.617188 C 283.667969 298.09375 283.890625 299.578125 284.039062 301.078125 C 284.1875 302.574219 284.261719 304.078125 284.265625 305.582031 Z M 493.890625 303.300781 C 493.886719 304.804688 493.808594 306.308594 493.65625 307.808594 C 493.507812 309.304688 493.28125 310.792969 492.984375 312.269531 C 492.6875 313.746094 492.320312 315.207031 491.878906 316.648438 C 491.441406 318.085938 490.929688 319.503906 490.351562 320.894531 C 489.773438 322.285156 489.128906 323.644531 488.417969 324.972656 C 487.703125 326.300781 486.929688 327.589844 486.089844 328.839844 C 485.253906 330.09375 484.355469 331.300781 483.398438 332.464844 C 482.441406 333.628906 481.429688 334.742188 480.363281 335.804688 C 479.296875 336.871094 478.183594 337.878906 477.019531 338.835938 C 475.855469 339.789062 474.644531 340.6875 473.390625 341.523438 C 472.140625 342.359375 470.847656 343.132812 469.519531 343.84375 C 468.191406 344.554688 466.832031 345.199219 465.441406 345.773438 C 464.046875 346.351562 462.632812 346.859375 461.191406 347.296875 C 459.75 347.734375 458.289062 348.101562 456.8125 348.398438 C 455.335938 348.691406 453.847656 348.914062 452.347656 349.0625 C 450.851562 349.210938 449.347656 349.289062 447.839844 349.289062 C 447.261719 349.289062 446.691406 349.347656 446.125 349.457031 C 445.558594 349.570312 445.011719 349.738281 444.476562 349.957031 C 443.945312 350.179688 443.4375 350.449219 442.957031 350.769531 C 442.476562 351.089844 442.035156 351.457031 441.625 351.863281 C 441.21875 352.273438 440.855469 352.714844 440.535156 353.195312 C 440.214844 353.675781 439.941406 354.183594 439.722656 354.714844 C 439.5 355.246094 439.332031 355.796875 439.222656 356.363281 C 439.109375 356.929688 439.050781 357.5 439.050781 358.078125 L 439.050781 412.269531 L 341.796875 350.695312 C 340.359375 349.746094 338.777344 349.277344 337.050781 349.289062 L 301.898438 349.289062 L 301.898438 305.582031 C 301.898438 303.503906 301.792969 301.425781 301.589844 299.355469 C 301.382812 297.285156 301.078125 295.226562 300.667969 293.1875 C 300.261719 291.144531 299.753906 289.128906 299.148438 287.136719 C 298.542969 285.144531 297.84375 283.191406 297.046875 281.265625 C 296.25 279.34375 295.359375 277.464844 294.378906 275.628906 C 293.394531 273.796875 292.324219 272.011719 291.167969 270.28125 C 290.011719 268.550781 288.773438 266.882812 287.453125 265.273438 C 286.132812 263.664062 284.738281 262.125 283.265625 260.652344 C 281.792969 259.179688 280.253906 257.785156 278.644531 256.464844 C 277.035156 255.144531 275.367188 253.90625 273.636719 252.746094 C 271.90625 251.589844 270.121094 250.523438 268.285156 249.539062 C 266.453125 248.558594 264.574219 247.667969 262.648438 246.871094 C 260.726562 246.074219 258.769531 245.371094 256.78125 244.765625 C 254.789062 244.160156 252.773438 243.65625 250.730469 243.246094 C 248.691406 242.839844 246.632812 242.535156 244.5625 242.328125 C 242.492188 242.121094 240.414062 242.019531 238.332031 242.015625 L 231.832031 242.015625 L 231.832031 206.863281 C 231.832031 205.359375 231.90625 203.855469 232.058594 202.359375 C 232.207031 200.859375 232.429688 199.371094 232.722656 197.894531 C 233.019531 196.417969 233.386719 194.960938 233.824219 193.519531 C 234.261719 192.082031 234.769531 190.664062 235.347656 189.273438 C 235.921875 187.882812 236.566406 186.523438 237.277344 185.195312 C 237.988281 183.867188 238.761719 182.578125 239.597656 181.328125 C 240.4375 180.074219 241.332031 178.867188 242.289062 177.703125 C 243.242188 176.539062 244.253906 175.425781 245.316406 174.363281 C 246.382812 173.296875 247.496094 172.285156 248.660156 171.332031 C 249.824219 170.375 251.03125 169.480469 252.285156 168.644531 C 253.535156 167.804688 254.824219 167.03125 256.152344 166.320312 C 257.480469 165.609375 258.839844 164.96875 260.230469 164.390625 C 261.621094 163.8125 263.035156 163.304688 264.476562 162.867188 C 265.917969 162.429688 267.375 162.0625 268.851562 161.765625 C 270.328125 161.472656 271.816406 161.25 273.316406 161.101562 C 274.8125 160.953125 276.316406 160.875 277.820312 160.875 L 447.722656 160.875 C 449.230469 160.875 450.734375 160.953125 452.230469 161.101562 C 453.730469 161.25 455.21875 161.472656 456.695312 161.765625 C 458.171875 162.0625 459.632812 162.429688 461.074219 162.867188 C 462.515625 163.304688 463.929688 163.8125 465.324219 164.390625 C 466.714844 164.964844 468.074219 165.609375 469.402344 166.320312 C 470.730469 167.03125 472.023438 167.804688 473.273438 168.640625 C 474.527344 169.476562 475.738281 170.371094 476.902344 171.328125 C 478.066406 172.285156 479.179688 173.292969 480.246094 174.359375 C 481.3125 175.421875 482.324219 176.535156 483.28125 177.699219 C 484.238281 178.863281 485.136719 180.070312 485.972656 181.324219 C 486.8125 182.574219 487.585938 183.863281 488.300781 185.191406 C 489.011719 186.519531 489.65625 187.878906 490.234375 189.269531 C 490.8125 190.660156 491.324219 192.074219 491.761719 193.515625 C 492.203125 194.957031 492.570312 196.417969 492.867188 197.894531 C 493.164062 199.371094 493.390625 200.859375 493.539062 202.355469 C 493.691406 203.855469 493.769531 205.359375 493.773438 206.863281 Z M 493.890625 303.300781 " fill-opacity="1" fill-rule="nonzero"/></g><path fill="#0fa3b1" d="M 161.175781 295.507812 C 160.808594 294.78125 160.351562 294.117188 159.800781 293.515625 C 159.25 292.914062 158.628906 292.402344 157.933594 291.976562 C 157.242188 291.546875 156.503906 291.222656 155.71875 291 C 154.9375 290.777344 154.136719 290.667969 153.324219 290.667969 C 152.507812 290.667969 151.710938 290.777344 150.925781 291 C 150.144531 291.222656 149.40625 291.546875 148.710938 291.976562 C 148.019531 292.402344 147.398438 292.914062 146.847656 293.515625 C 146.296875 294.117188 145.839844 294.78125 145.472656 295.507812 L 91.28125 402.253906 C 90.984375 402.769531 90.742188 403.308594 90.558594 403.875 C 90.371094 404.441406 90.246094 405.019531 90.175781 405.609375 C 90.109375 406.199219 90.101562 406.792969 90.152344 407.386719 C 90.203125 407.980469 90.316406 408.558594 90.484375 409.128906 C 90.65625 409.699219 90.878906 410.25 91.160156 410.773438 C 91.441406 411.296875 91.773438 411.789062 92.15625 412.246094 C 92.535156 412.703125 92.960938 413.117188 93.425781 413.488281 C 93.890625 413.859375 94.386719 414.179688 94.917969 414.449219 C 95.449219 414.71875 96 414.933594 96.574219 415.09375 C 97.148438 415.25 97.730469 415.347656 98.324219 415.386719 C 98.917969 415.425781 99.511719 415.40625 100.101562 415.324219 C 100.691406 415.246094 101.265625 415.105469 101.828125 414.90625 C 102.386719 414.710938 102.921875 414.457031 103.433594 414.152344 C 103.945312 413.84375 104.417969 413.488281 104.855469 413.085938 C 105.292969 412.683594 105.6875 412.242188 106.035156 411.757812 C 106.382812 411.277344 106.679688 410.761719 106.921875 410.21875 L 125.613281 373.425781 L 181.035156 373.425781 L 199.488281 410.21875 C 199.734375 410.761719 200.03125 411.277344 200.378906 411.757812 C 200.726562 412.242188 201.117188 412.683594 201.558594 413.085938 C 201.996094 413.488281 202.46875 413.84375 202.980469 414.152344 C 203.488281 414.457031 204.023438 414.710938 204.585938 414.90625 C 205.148438 415.105469 205.722656 415.246094 206.3125 415.324219 C 206.902344 415.40625 207.492188 415.425781 208.085938 415.386719 C 208.679688 415.347656 209.265625 415.25 209.839844 415.09375 C 210.414062 414.933594 210.964844 414.71875 211.496094 414.449219 C 212.027344 414.179688 212.523438 413.859375 212.988281 413.488281 C 213.453125 413.117188 213.875 412.703125 214.257812 412.246094 C 214.636719 411.789062 214.96875 411.296875 215.25 410.773438 C 215.53125 410.25 215.757812 409.699219 215.929688 409.128906 C 216.097656 408.558594 216.210938 407.980469 216.261719 407.386719 C 216.3125 406.792969 216.304688 406.203125 216.238281 405.609375 C 216.167969 405.019531 216.042969 404.441406 215.855469 403.875 C 215.667969 403.308594 215.429688 402.769531 215.132812 402.253906 Z M 134.515625 355.851562 L 153.324219 318.882812 L 172.070312 355.851562 Z M 134.515625 355.851562 " fill-opacity="1" fill-rule="nonzero"/><path fill="#0fa3b1" d="M 414.210938 296.328125 L 379.9375 273.242188 C 387.054688 261.992188 392.914062 250.117188 397.515625 237.621094 L 409.230469 237.621094 C 409.808594 237.621094 410.378906 237.566406 410.945312 237.453125 C 411.511719 237.339844 412.0625 237.175781 412.59375 236.953125 C 413.128906 236.734375 413.632812 236.460938 414.113281 236.140625 C 414.59375 235.820312 415.039062 235.457031 415.445312 235.050781 C 415.855469 234.640625 416.21875 234.195312 416.539062 233.71875 C 416.859375 233.238281 417.128906 232.730469 417.351562 232.199219 C 417.570312 231.664062 417.738281 231.113281 417.851562 230.550781 C 417.964844 229.984375 418.019531 229.410156 418.019531 228.835938 C 418.019531 228.257812 417.964844 227.6875 417.851562 227.121094 C 417.738281 226.554688 417.570312 226.003906 417.351562 225.472656 C 417.128906 224.9375 416.859375 224.433594 416.539062 223.953125 C 416.21875 223.472656 415.855469 223.027344 415.445312 222.621094 C 415.039062 222.210938 414.59375 221.847656 414.113281 221.527344 C 413.632812 221.207031 413.128906 220.9375 412.59375 220.714844 C 412.0625 220.496094 411.511719 220.328125 410.945312 220.214844 C 410.378906 220.101562 409.808594 220.046875 409.230469 220.046875 L 373.726562 220.046875 L 373.726562 201.769531 C 373.726562 201.191406 373.671875 200.617188 373.558594 200.054688 C 373.445312 199.488281 373.28125 198.9375 373.058594 198.40625 C 372.839844 197.871094 372.566406 197.363281 372.246094 196.886719 C 371.925781 196.40625 371.5625 195.960938 371.152344 195.554688 C 370.746094 195.144531 370.300781 194.78125 369.820312 194.460938 C 369.34375 194.140625 368.835938 193.871094 368.304688 193.648438 C 367.769531 193.425781 367.21875 193.261719 366.65625 193.148438 C 366.089844 193.035156 365.515625 192.980469 364.941406 192.980469 C 364.363281 192.980469 363.792969 193.035156 363.226562 193.148438 C 362.660156 193.261719 362.109375 193.425781 361.578125 193.648438 C 361.042969 193.871094 360.539062 194.140625 360.058594 194.460938 C 359.578125 194.78125 359.132812 195.144531 358.726562 195.554688 C 358.316406 195.960938 357.953125 196.40625 357.632812 196.886719 C 357.3125 197.363281 357.042969 197.871094 356.820312 198.40625 C 356.601562 198.9375 356.433594 199.488281 356.320312 200.054688 C 356.207031 200.617188 356.152344 201.191406 356.152344 201.769531 L 356.152344 220.046875 L 316.664062 220.046875 C 316.085938 220.046875 315.515625 220.101562 314.949219 220.214844 C 314.382812 220.328125 313.835938 220.496094 313.300781 220.714844 C 312.769531 220.9375 312.261719 221.207031 311.78125 221.527344 C 311.300781 221.847656 310.859375 222.210938 310.449219 222.621094 C 310.042969 223.027344 309.679688 223.472656 309.355469 223.953125 C 309.035156 224.433594 308.765625 224.9375 308.546875 225.472656 C 308.324219 226.003906 308.15625 226.554688 308.046875 227.121094 C 307.933594 227.6875 307.875 228.257812 307.875 228.835938 C 307.875 229.410156 307.933594 229.984375 308.046875 230.550781 C 308.15625 231.113281 308.324219 231.664062 308.546875 232.199219 C 308.765625 232.730469 309.035156 233.238281 309.355469 233.71875 C 309.679688 234.195312 310.042969 234.640625 310.449219 235.050781 C 310.859375 235.457031 311.300781 235.820312 311.78125 236.140625 C 312.261719 236.460938 312.769531 236.734375 313.300781 236.953125 C 313.835938 237.175781 314.382812 237.339844 314.949219 237.453125 C 315.515625 237.566406 316.085938 237.621094 316.664062 237.621094 L 378.824219 237.621094 C 375.074219 246.582031 370.582031 255.15625 365.351562 263.34375 L 343.261719 248.460938 C 342.773438 248.136719 342.257812 247.863281 341.714844 247.640625 C 341.175781 247.417969 340.613281 247.253906 340.039062 247.140625 C 339.464844 247.027344 338.882812 246.972656 338.296875 246.976562 C 337.710938 246.976562 337.132812 247.039062 336.554688 247.152344 C 335.980469 247.269531 335.425781 247.441406 334.882812 247.667969 C 334.34375 247.894531 333.832031 248.171875 333.34375 248.5 C 332.859375 248.828125 332.410156 249.199219 331.996094 249.617188 C 331.582031 250.035156 331.214844 250.484375 330.890625 250.976562 C 330.570312 251.464844 330.296875 251.980469 330.074219 252.523438 C 329.851562 253.066406 329.6875 253.625 329.574219 254.199219 C 329.464844 254.773438 329.410156 255.355469 329.414062 255.941406 C 329.414062 256.527344 329.476562 257.109375 329.59375 257.683594 C 329.710938 258.257812 329.882812 258.8125 330.109375 259.355469 C 330.335938 259.894531 330.613281 260.40625 330.941406 260.894531 C 331.269531 261.378906 331.644531 261.828125 332.0625 262.238281 C 332.476562 262.652344 332.929688 263.019531 333.421875 263.34375 L 355.214844 277.988281 C 348.382812 286.628906 340.824219 294.574219 332.542969 301.835938 C 332.109375 302.21875 331.71875 302.640625 331.371094 303.105469 C 331.023438 303.566406 330.722656 304.058594 330.46875 304.578125 C 330.21875 305.097656 330.019531 305.640625 329.875 306.199219 C 329.730469 306.757812 329.640625 307.328125 329.605469 307.90625 C 329.570312 308.484375 329.59375 309.058594 329.675781 309.632812 C 329.753906 310.203125 329.890625 310.765625 330.078125 311.308594 C 330.269531 311.855469 330.511719 312.378906 330.804688 312.878906 C 331.09375 313.378906 331.433594 313.84375 331.820312 314.277344 C 332.203125 314.707031 332.625 315.097656 333.085938 315.449219 C 333.546875 315.796875 334.039062 316.097656 334.558594 316.351562 C 335.078125 316.601562 335.621094 316.800781 336.179688 316.949219 C 336.738281 317.09375 337.308594 317.1875 337.886719 317.21875 C 338.460938 317.253906 339.039062 317.230469 339.609375 317.152344 C 340.183594 317.074219 340.746094 316.941406 341.289062 316.75 C 341.835938 316.5625 342.359375 316.320312 342.859375 316.03125 C 343.359375 315.738281 343.824219 315.398438 344.257812 315.015625 C 353.679688 306.757812 362.253906 297.695312 369.976562 287.832031 L 404.542969 311.265625 C 406.015625 312.253906 407.636719 312.742188 409.40625 312.730469 C 410.347656 312.730469 411.261719 312.578125 412.152344 312.285156 C 413.042969 311.988281 413.863281 311.5625 414.617188 311.003906 C 415.371094 310.445312 416.019531 309.78125 416.5625 309.015625 C 417.101562 308.25 417.511719 307.417969 417.785156 306.519531 C 418.0625 305.621094 418.1875 304.703125 418.171875 303.765625 C 418.152344 302.828125 417.984375 301.914062 417.675781 301.03125 C 417.363281 300.144531 416.921875 299.332031 416.351562 298.585938 C 415.777344 297.84375 415.105469 297.207031 414.328125 296.679688 Z M 414.210938 296.328125 " fill-opacity="1" fill-rule="nonzero"/><g fill="#0fa3b1" fill-opacity="1"><g transform="translate(537.114468, 481.246376)"><g><path d="M 43.453125 -256.421875 C 34.441406 -277.660156 29.9375 -292.953125 29.9375 -302.296875 L 3.859375 -300.84375 L 3.859375 -338.015625 L 146.3125 -338.015625 L 146.3125 -306.15625 C 125.0625 -306.800781 114.4375 -300.039062 114.4375 -285.875 C 114.4375 -280.71875 115.726562 -275.082031 118.3125 -268.96875 L 162.734375 -159.84375 C 166.597656 -150.820312 171.425781 -138.910156 177.21875 -124.109375 C 179.15625 -118.953125 183.503906 -107.84375 190.265625 -90.78125 L 190.734375 -90.78125 L 213.921875 -157.421875 L 250.625 -258.34375 C 257.707031 -280.5625 264.304688 -295.210938 270.421875 -302.296875 L 270.421875 -302.765625 L 245.3125 -301.328125 L 233.234375 -300.84375 L 233.234375 -338.015625 L 341.890625 -338.015625 L 341.890625 -306.15625 C 330.617188 -305.507812 320.957031 -301.242188 312.90625 -293.359375 C 304.863281 -285.472656 297.460938 -272.515625 290.703125 -254.484375 L 194.125 2.890625 L 154.53125 2.890625 Z M 43.453125 -256.421875 "/></g></g></g><g fill="#0fa3b1" fill-opacity="1"><g transform="translate(836.504712, 481.246376)"><g><path d="M 134.25 7.71875 C 110.75 7.71875 89.984375 2.488281 71.953125 -7.96875 C 53.921875 -18.425781 39.914062 -33.3125 29.9375 -52.625 C 19.957031 -71.945312 14.96875 -94.484375 14.96875 -120.234375 C 14.96875 -142.773438 20.035156 -163.941406 30.171875 -183.734375 C 40.316406 -203.535156 54.5625 -219.390625 72.90625 -231.296875 C 91.257812 -243.210938 112.1875 -249.171875 135.6875 -249.171875 C 166.914062 -249.171875 192.910156 -239.992188 213.671875 -221.640625 C 234.441406 -203.296875 244.664062 -172.710938 244.34375 -129.890625 L 85.953125 -127 C 85.953125 -98.664062 91.34375 -76.289062 102.125 -59.875 C 112.914062 -43.457031 130.222656 -35.25 154.046875 -35.25 C 165.304688 -35.25 177.375 -38.144531 190.25 -43.9375 C 203.132812 -49.738281 214.726562 -58.914062 225.03125 -71.46875 L 246.75 -51.1875 C 219.394531 -11.914062 181.894531 7.71875 134.25 7.71875 Z M 177.703125 -160.796875 C 176.734375 -197.179688 163.535156 -215.375 138.109375 -215.375 C 124.265625 -215.375 113.238281 -210.460938 105.03125 -200.640625 C 96.820312 -190.816406 91.429688 -177.535156 88.859375 -160.796875 Z M 177.703125 -160.796875 "/></g></g></g><g fill="#0fa3b1" fill-opacity="1"><g transform="translate(1053.803491, 481.246376)"><g><path d="M 19.796875 -31.390625 C 32.023438 -31.390625 39.828125 -34.769531 43.203125 -41.53125 C 46.585938 -48.289062 48.28125 -59.234375 48.28125 -74.359375 L 48.28125 -155.484375 C 48.28125 -169.972656 48.925781 -183.65625 50.21875 -196.53125 L 16.421875 -195.09375 L 16.421875 -231.78125 C 36.703125 -231.78125 53.117188 -233.226562 65.671875 -236.125 C 78.222656 -239.03125 86.59375 -242.414062 90.78125 -246.28125 L 114.4375 -246.28125 C 115.082031 -241.445312 115.566406 -235.164062 115.890625 -227.4375 C 116.210938 -219.71875 116.375 -212.15625 116.375 -204.75 L 117.34375 -204.75 C 139.226562 -234.363281 162.40625 -249.171875 186.875 -249.171875 C 199.113281 -249.171875 209.175781 -245.789062 217.0625 -239.03125 C 224.945312 -232.269531 228.890625 -222.289062 228.890625 -209.09375 C 228.890625 -200.71875 226.148438 -192.988281 220.671875 -185.90625 C 215.203125 -178.832031 206.992188 -175.296875 196.046875 -175.296875 C 188.003906 -175.296875 180.84375 -177.382812 174.5625 -181.5625 C 168.289062 -185.75 164.671875 -192.992188 163.703125 -203.296875 C 154.679688 -203.296875 145.421875 -198.0625 135.921875 -187.59375 C 126.429688 -177.132812 120.078125 -166.753906 116.859375 -156.453125 L 116.859375 -77.75 C 116.859375 -62.289062 116.210938 -48.125 114.921875 -35.25 C 125.222656 -36.21875 135.6875 -36.703125 146.3125 -36.703125 L 146.3125 0 L 19.796875 0 Z M 19.796875 -31.390625 "/></g></g></g><g fill="#0fa3b1" fill-opacity="1"><g transform="translate(1243.094614, 481.246376)"><g><path d="M 143.90625 7.71875 C 132.632812 7.71875 120.640625 5.546875 107.921875 1.203125 C 95.210938 -3.140625 83.863281 -10.625 73.875 -21.25 L 73.40625 -21.25 L 59.390625 0 L 30.421875 0 L 30.421875 -272.828125 C 30.421875 -291.503906 30.90625 -305.507812 31.875 -314.84375 L -1.9375 -313.390625 L -1.9375 -350.09375 C 18.34375 -350.09375 34.757812 -351.539062 47.3125 -354.4375 C 59.875 -357.332031 68.25 -360.710938 72.4375 -364.578125 L 98.515625 -364.578125 L 98.515625 -223.09375 C 118.148438 -240.476562 139.878906 -249.171875 163.703125 -249.171875 C 183.015625 -249.171875 199.992188 -244.179688 214.640625 -234.203125 C 229.285156 -224.222656 240.710938 -209.976562 248.921875 -191.46875 C 257.140625 -172.957031 261.25 -151.46875 261.25 -127 C 261.25 -100.925781 256.5 -77.75 247 -57.46875 C 237.5 -37.1875 223.894531 -21.25 206.1875 -9.65625 C 188.488281 1.925781 167.726562 7.71875 143.90625 7.71875 Z M 135.6875 -27.53125 C 155.007812 -27.53125 168.9375 -36.21875 177.46875 -53.59375 C 186 -70.976562 190.265625 -93.03125 190.265625 -119.75 C 190.265625 -143.570312 186 -163.851562 177.46875 -180.59375 C 168.9375 -197.34375 156.140625 -205.71875 139.078125 -205.71875 C 131.023438 -205.71875 123.375 -203.863281 116.125 -200.15625 C 108.882812 -196.457031 103.015625 -191.390625 98.515625 -184.953125 L 98.515625 -72.4375 C 98.515625 -56.65625 102.132812 -45.222656 109.375 -38.140625 C 116.613281 -31.066406 125.382812 -27.53125 135.6875 -27.53125 Z M 135.6875 -27.53125 "/></g></g></g><g fill="#0fa3b1" fill-opacity="1"><g transform="translate(1477.29461, 481.246376)"><g><path d="M 119.75 7.71875 C 91.101562 7.71875 70.582031 -0.648438 58.1875 -17.390625 C 45.789062 -34.128906 39.59375 -61.332031 39.59375 -99 L 39.59375 -154.53125 C 39.59375 -168.050781 40.078125 -182.050781 41.046875 -196.53125 L 7.25 -195.09375 L 7.25 -231.78125 C 27.53125 -231.78125 43.945312 -233.226562 56.5 -236.125 C 69.050781 -239.03125 77.421875 -242.414062 81.609375 -246.28125 L 108.171875 -246.28125 L 108.171875 -98.515625 C 108.171875 -77.265625 110.90625 -61.648438 116.375 -51.671875 C 121.84375 -41.691406 130.535156 -36.703125 142.453125 -36.703125 C 150.503906 -36.703125 158.796875 -38.953125 167.328125 -43.453125 C 175.859375 -47.960938 183.019531 -53.4375 188.8125 -59.875 L 188.8125 -154.53125 C 188.8125 -169.65625 189.453125 -183.65625 190.734375 -196.53125 L 156.9375 -195.09375 L 156.9375 -231.78125 C 177.21875 -231.78125 193.554688 -233.226562 205.953125 -236.125 C 218.347656 -239.03125 226.640625 -242.414062 230.828125 -246.28125 L 257.375 -246.28125 L 257.375 -77.75 C 257.375 -62.289062 256.734375 -48.125 255.453125 -35.25 C 265.753906 -36.21875 276.21875 -36.703125 286.84375 -36.703125 L 286.84375 0 L 195.09375 0 L 192.1875 -25.109375 L 191.703125 -25.109375 C 179.796875 -14.804688 168.285156 -6.757812 157.171875 -0.96875 C 146.066406 4.820312 133.59375 7.71875 119.75 7.71875 Z M 119.75 7.71875 "/></g></g></g><g fill="#0fa3b1" fill-opacity="1"><g transform="translate(1733.224635, 481.246376)"><g><path d="M 19.796875 -31.390625 C 32.023438 -31.390625 39.828125 -34.769531 43.203125 -41.53125 C 46.585938 -48.289062 48.28125 -59.234375 48.28125 -74.359375 L 48.28125 -155.484375 C 48.28125 -169.972656 48.925781 -183.65625 50.21875 -196.53125 L 16.421875 -195.09375 L 16.421875 -231.78125 C 36.703125 -231.78125 53.117188 -233.226562 65.671875 -236.125 C 78.222656 -239.03125 86.59375 -242.414062 90.78125 -246.28125 L 114.4375 -246.28125 C 114.4375 -245.632812 115.082031 -237.582031 116.375 -222.125 L 117.34375 -222.125 C 127.320312 -230.175781 138.585938 -236.695312 151.140625 -241.6875 C 163.703125 -246.675781 175.9375 -249.171875 187.84375 -249.171875 C 202.332031 -249.171875 214.484375 -246.515625 224.296875 -241.203125 C 234.117188 -235.890625 241.925781 -227.921875 247.71875 -217.296875 C 259.3125 -226.953125 272.1875 -234.675781 286.34375 -240.46875 C 300.507812 -246.269531 313.875 -249.171875 326.4375 -249.171875 C 353.15625 -249.171875 373.03125 -241.441406 386.0625 -225.984375 C 399.101562 -210.535156 405.625 -184.785156 405.625 -148.734375 L 405.625 -77.75 C 405.625 -62.289062 404.984375 -48.125 403.703125 -35.25 C 414.003906 -36.21875 424.460938 -36.703125 435.078125 -36.703125 L 435.078125 0 L 312.90625 0 L 312.90625 -31.390625 C 323.207031 -31.390625 329.804688 -34.847656 332.703125 -41.765625 C 335.609375 -48.691406 337.0625 -59.554688 337.0625 -74.359375 L 337.0625 -148.25 C 336.738281 -168.53125 333.359375 -182.9375 326.921875 -191.46875 C 320.484375 -200 311.144531 -204.265625 298.90625 -204.265625 C 284.738281 -204.265625 270.894531 -198.953125 257.375 -188.328125 C 260.28125 -175.453125 261.734375 -160.160156 261.734375 -142.453125 L 261.734375 -77.75 C 261.734375 -62.289062 261.085938 -48.125 259.796875 -35.25 C 270.097656 -36.21875 280.5625 -36.703125 291.1875 -36.703125 L 291.1875 0 L 166.59375 0 L 166.59375 -31.390625 C 177.863281 -31.390625 185.109375 -34.769531 188.328125 -41.53125 C 191.546875 -48.289062 193.15625 -59.234375 193.15625 -74.359375 L 192.671875 -149.703125 C 192.671875 -169.660156 189.773438 -183.742188 183.984375 -191.953125 C 178.191406 -200.160156 169.5 -204.425781 157.90625 -204.75 C 143.738281 -204.75 130.054688 -198.789062 116.859375 -186.875 L 116.859375 -77.75 C 116.859375 -62.289062 116.210938 -48.125 114.921875 -35.25 C 125.222656 -36.21875 134.882812 -36.703125 143.90625 -36.703125 L 143.90625 0 L 19.796875 0 Z M 19.796875 -31.390625 "/></g></g></g></g></g></svg>