<svg xmlns="http://www.w3.org/2000/svg" xmlns:xlink="http://www.w3.org/1999/xlink" width="1024" zoomAndPan="magnify" viewBox="0 0 768 767.999994" height="1024" preserveAspectRatio="xMidYMid meet" version="1.0"><defs><clipPath id="692ee60f75"><path d="M 32 111.242188 L 736 111.242188 L 736 656.492188 L 32 656.492188 Z M 32 111.242188 " clip-rule="nonzero"/></clipPath></defs><g clip-path="url(#692ee60f75)"><path fill="#0fa3b1" d="M 647.726562 111.160156 L 411.964844 111.160156 C 410.519531 111.160156 409.074219 111.195312 407.632812 111.261719 C 406.1875 111.332031 404.746094 111.4375 403.308594 111.578125 C 401.871094 111.71875 400.4375 111.894531 399.007812 112.105469 C 397.578125 112.316406 396.15625 112.5625 394.738281 112.839844 C 393.320312 113.121094 391.910156 113.4375 390.507812 113.789062 C 389.105469 114.136719 387.714844 114.519531 386.332031 114.9375 C 384.949219 115.355469 383.578125 115.808594 382.214844 116.292969 C 380.855469 116.78125 379.507812 117.296875 378.171875 117.851562 C 376.835938 118.402344 375.515625 118.988281 374.207031 119.601562 C 372.902344 120.21875 371.609375 120.867188 370.335938 121.546875 C 369.058594 122.226562 367.804688 122.9375 366.5625 123.679688 C 365.324219 124.421875 364.101562 125.195312 362.898438 125.996094 C 361.699219 126.796875 360.515625 127.628906 359.355469 128.488281 C 358.191406 129.347656 357.054688 130.234375 355.933594 131.148438 C 354.816406 132.066406 353.722656 133.007812 352.652344 133.976562 C 351.578125 134.945312 350.53125 135.941406 349.511719 136.960938 C 348.488281 137.984375 347.492188 139.027344 346.519531 140.097656 C 345.546875 141.167969 344.605469 142.261719 343.6875 143.378906 C 342.769531 144.492188 341.878906 145.632812 341.015625 146.792969 C 340.15625 147.949219 339.320312 149.132812 338.519531 150.332031 C 337.714844 151.53125 336.941406 152.753906 336.195312 153.992188 C 335.453125 155.230469 334.738281 156.484375 334.058594 157.757812 C 333.375 159.03125 332.722656 160.324219 332.105469 161.628906 C 331.484375 162.933594 330.898438 164.253906 330.34375 165.589844 C 329.792969 166.921875 329.269531 168.269531 328.78125 169.628906 C 328.292969 170.988281 327.839844 172.359375 327.417969 173.742188 C 327 175.125 326.613281 176.519531 326.257812 177.917969 C 325.90625 179.320312 325.589844 180.730469 325.304688 182.144531 C 325.023438 183.5625 324.773438 184.984375 324.5625 186.414062 C 324.347656 187.84375 324.167969 189.277344 324.027344 190.714844 C 323.882812 192.152344 323.777344 193.59375 323.703125 195.035156 C 323.632812 196.480469 323.59375 197.925781 323.59375 199.367188 L 323.59375 248.148438 L 121.082031 248.148438 C 119.636719 248.148438 118.191406 248.1875 116.746094 248.257812 C 115.304688 248.332031 113.863281 248.4375 112.425781 248.582031 C 110.984375 248.722656 109.550781 248.902344 108.121094 249.113281 C 106.691406 249.328125 105.269531 249.578125 103.851562 249.859375 C 102.433594 250.144531 101.023438 250.460938 99.625 250.8125 C 98.222656 251.164062 96.828125 251.550781 95.445312 251.972656 C 94.0625 252.394531 92.691406 252.847656 91.332031 253.335938 C 89.96875 253.824219 88.621094 254.34375 87.289062 254.898438 C 85.953125 255.453125 84.632812 256.039062 83.324219 256.65625 C 82.019531 257.277344 80.730469 257.925781 79.457031 258.609375 C 78.179688 259.289062 76.925781 260.003906 75.683594 260.746094 C 74.445312 261.492188 73.226562 262.265625 72.023438 263.070312 C 70.824219 263.871094 69.640625 264.707031 68.480469 265.566406 C 67.320312 266.429688 66.183594 267.316406 65.066406 268.234375 C 63.949219 269.152344 62.855469 270.097656 61.785156 271.070312 C 60.714844 272.039062 59.667969 273.035156 58.644531 274.058594 C 57.625 275.082031 56.628906 276.128906 55.660156 277.199219 C 54.6875 278.273438 53.746094 279.367188 52.828125 280.484375 C 51.910156 281.601562 51.023438 282.742188 50.164062 283.902344 C 49.300781 285.0625 48.46875 286.246094 47.667969 287.449219 C 46.863281 288.648438 46.09375 289.871094 45.351562 291.109375 C 44.605469 292.351562 43.894531 293.609375 43.214844 294.882812 C 42.535156 296.15625 41.882812 297.449219 41.265625 298.753906 C 40.648438 300.0625 40.0625 301.382812 39.511719 302.71875 C 38.957031 304.054688 38.4375 305.402344 37.953125 306.765625 C 37.464844 308.125 37.011719 309.496094 36.59375 310.878906 C 36.171875 312.261719 35.789062 313.65625 35.4375 315.058594 C 35.085938 316.460938 34.769531 317.871094 34.488281 319.289062 C 34.207031 320.707031 33.957031 322.128906 33.746094 323.558594 C 33.535156 324.988281 33.359375 326.421875 33.214844 327.863281 C 33.074219 329.300781 32.96875 330.742188 32.898438 332.183594 C 32.828125 333.628906 32.792969 335.074219 32.792969 336.519531 L 32.792969 470.496094 C 32.796875 473.132812 32.917969 475.761719 33.15625 478.382812 C 33.394531 481.007812 33.75 483.617188 34.222656 486.207031 C 34.691406 488.800781 35.28125 491.367188 35.980469 493.90625 C 36.683594 496.445312 37.496094 498.949219 38.421875 501.414062 C 39.347656 503.882812 40.378906 506.300781 41.523438 508.675781 C 42.664062 511.050781 43.910156 513.371094 45.257812 515.632812 C 46.605469 517.894531 48.054688 520.09375 49.601562 522.226562 C 51.144531 524.359375 52.785156 526.421875 54.515625 528.40625 C 56.246094 530.394531 58.058594 532.300781 59.960938 534.125 C 61.859375 535.949219 63.839844 537.6875 65.894531 539.335938 C 67.949219 540.980469 70.074219 542.535156 72.269531 543.992188 C 74.464844 545.449219 76.71875 546.804688 79.035156 548.0625 C 81.351562 549.316406 83.71875 550.46875 86.140625 551.511719 C 88.558594 552.554688 91.019531 553.492188 93.519531 554.316406 C 96.023438 555.140625 98.558594 555.847656 101.125 556.445312 C 103.691406 557.042969 106.277344 557.527344 108.886719 557.890625 L 108.886719 643.90625 C 108.894531 644.992188 109.042969 646.058594 109.332031 647.109375 C 109.625 648.15625 110.050781 649.144531 110.605469 650.078125 C 111.164062 651.011719 111.835938 651.859375 112.617188 652.613281 C 113.398438 653.367188 114.269531 654.003906 115.222656 654.527344 C 116.175781 655.050781 117.179688 655.4375 118.238281 655.691406 C 119.296875 655.945312 120.367188 656.054688 121.453125 656.023438 C 122.542969 655.988281 123.605469 655.8125 124.644531 655.496094 C 125.683594 655.175781 126.664062 654.730469 127.585938 654.148438 L 278.71875 558.703125 L 357.414062 558.703125 C 358.851562 558.699219 360.289062 558.65625 361.726562 558.578125 C 363.164062 558.503906 364.601562 558.390625 366.03125 558.242188 C 367.464844 558.097656 368.890625 557.914062 370.3125 557.695312 C 371.738281 557.480469 373.152344 557.226562 374.5625 556.941406 C 375.972656 556.65625 377.378906 556.332031 378.773438 555.980469 C 380.167969 555.625 381.550781 555.234375 382.929688 554.8125 C 384.304688 554.386719 385.667969 553.933594 387.023438 553.441406 C 388.375 552.953125 389.714844 552.429688 391.042969 551.875 C 392.371094 551.320312 393.683594 550.730469 394.984375 550.113281 C 396.285156 549.492188 397.566406 548.839844 398.835938 548.160156 C 400.101562 547.476562 401.351562 546.761719 402.582031 546.019531 C 403.816406 545.277344 405.027344 544.503906 406.222656 543.699219 C 407.417969 542.894531 408.59375 542.0625 409.746094 541.203125 C 410.898438 540.34375 412.03125 539.453125 413.140625 538.539062 C 414.253906 537.621094 415.339844 536.679688 416.402344 535.710938 C 417.46875 534.742188 418.507812 533.746094 419.523438 532.726562 C 420.539062 531.707031 421.527344 530.664062 422.492188 529.59375 C 423.457031 528.523438 424.394531 527.433594 425.304688 526.320312 C 426.214844 525.203125 427.097656 524.070312 427.953125 522.910156 C 428.808594 521.753906 429.636719 520.574219 430.433594 519.375 C 431.230469 518.179688 432 516.960938 432.738281 515.726562 C 433.476562 514.488281 434.183594 513.238281 434.859375 511.964844 C 435.535156 510.695312 436.179688 509.410156 436.792969 508.109375 C 437.410156 506.804688 437.988281 505.488281 438.539062 504.160156 C 439.089844 502.828125 439.605469 501.484375 440.089844 500.128906 C 440.570312 498.773438 441.023438 497.40625 441.4375 496.03125 C 441.855469 494.652344 442.238281 493.265625 442.585938 491.867188 C 442.9375 490.472656 443.25 489.066406 443.53125 487.65625 C 443.808594 486.246094 444.054688 484.828125 444.265625 483.402344 C 444.476562 481.976562 444.652344 480.550781 444.792969 479.117188 C 444.933594 477.683594 445.039062 476.25 445.109375 474.8125 C 445.179688 473.375 445.214844 471.9375 445.214844 470.496094 L 445.214844 421.71875 L 490.496094 421.71875 L 641.0625 517 C 643.054688 518.230469 645.222656 518.855469 647.566406 518.871094 C 649.664062 518.867188 651.640625 518.378906 653.5 517.40625 C 654.453125 516.871094 655.316406 516.21875 656.09375 515.453125 C 656.875 514.6875 657.539062 513.832031 658.085938 512.890625 C 658.636719 511.949219 659.054688 510.949219 659.339844 509.894531 C 659.621094 508.839844 659.761719 507.765625 659.757812 506.675781 L 659.757812 420.742188 C 662.367188 420.375 664.957031 419.894531 667.523438 419.296875 C 670.089844 418.699219 672.621094 417.988281 675.125 417.164062 C 677.628906 416.339844 680.089844 415.40625 682.507812 414.363281 C 684.925781 413.320312 687.292969 412.167969 689.609375 410.914062 C 691.925781 409.65625 694.179688 408.300781 696.375 406.84375 C 698.570312 405.386719 700.695312 403.832031 702.75 402.183594 C 704.808594 400.535156 706.785156 398.800781 708.683594 396.976562 C 710.585938 395.152344 712.402344 393.246094 714.132812 391.257812 C 715.863281 389.273438 717.5 387.210938 719.046875 385.078125 C 720.589844 382.945312 722.039062 380.746094 723.386719 378.484375 C 724.738281 376.21875 725.980469 373.902344 727.125 371.527344 C 728.265625 369.152344 729.300781 366.734375 730.226562 364.265625 C 731.148438 361.800781 731.964844 359.296875 732.664062 356.757812 C 733.367188 354.21875 733.953125 351.652344 734.425781 349.058594 C 734.898438 346.46875 735.253906 343.859375 735.492188 341.234375 C 735.730469 338.613281 735.851562 335.980469 735.855469 333.347656 L 735.855469 199.367188 C 735.851562 197.925781 735.8125 196.484375 735.742188 195.046875 C 735.667969 193.605469 735.558594 192.167969 735.414062 190.734375 C 735.273438 189.296875 735.09375 187.867188 734.878906 186.441406 C 734.667969 185.015625 734.417969 183.59375 734.132812 182.183594 C 733.851562 180.769531 733.535156 179.363281 733.183594 177.964844 C 732.832031 176.566406 732.445312 175.175781 732.023438 173.796875 C 731.605469 172.417969 731.152344 171.046875 730.664062 169.691406 C 730.175781 168.332031 729.65625 166.988281 729.105469 165.65625 C 728.550781 164.324219 727.964844 163.007812 727.347656 161.703125 C 726.730469 160.402344 726.082031 159.113281 725.402344 157.84375 C 724.722656 156.570312 724.011719 155.316406 723.269531 154.082031 C 722.527344 152.84375 721.757812 151.625 720.957031 150.425781 C 720.15625 149.226562 719.324219 148.050781 718.464844 146.890625 C 717.605469 145.734375 716.71875 144.597656 715.804688 143.480469 C 714.890625 142.367188 713.949219 141.273438 712.980469 140.207031 C 712.011719 139.136719 711.019531 138.09375 710 137.074219 C 708.980469 136.050781 707.9375 135.058594 706.871094 134.089844 C 705.800781 133.121094 704.710938 132.175781 703.597656 131.261719 C 702.484375 130.347656 701.347656 129.457031 700.191406 128.597656 C 699.03125 127.738281 697.855469 126.90625 696.65625 126.105469 C 695.457031 125.300781 694.242188 124.53125 693.003906 123.785156 C 691.769531 123.042969 690.515625 122.332031 689.246094 121.652344 C 687.972656 120.96875 686.6875 120.320312 685.382812 119.699219 C 684.082031 119.082031 682.765625 118.496094 681.433594 117.941406 C 680.101562 117.386719 678.757812 116.867188 677.402344 116.378906 C 676.042969 115.890625 674.675781 115.4375 673.296875 115.015625 C 671.917969 114.59375 670.527344 114.207031 669.132812 113.851562 C 667.734375 113.5 666.328125 113.179688 664.914062 112.898438 C 663.5 112.613281 662.078125 112.363281 660.652344 112.148438 C 659.226562 111.933594 657.796875 111.753906 656.363281 111.609375 C 654.929688 111.464844 653.492188 111.351562 652.050781 111.277344 C 650.609375 111.203125 649.167969 111.164062 647.726562 111.160156 Z M 420.824219 470.496094 C 420.824219 471.539062 420.796875 472.585938 420.746094 473.628906 C 420.691406 474.671875 420.613281 475.710938 420.511719 476.75 C 420.40625 477.789062 420.277344 478.824219 420.125 479.855469 C 419.96875 480.890625 419.789062 481.917969 419.585938 482.941406 C 419.382812 483.964844 419.152344 484.984375 418.898438 485.996094 C 418.640625 487.007812 418.363281 488.015625 418.058594 489.011719 C 417.753906 490.011719 417.425781 491.003906 417.074219 491.984375 C 416.722656 492.96875 416.347656 493.941406 415.945312 494.90625 C 415.546875 495.871094 415.121094 496.824219 414.675781 497.769531 C 414.226562 498.710938 413.757812 499.644531 413.265625 500.566406 C 412.773438 501.484375 412.257812 502.394531 411.722656 503.289062 C 411.183594 504.183594 410.625 505.066406 410.046875 505.933594 C 409.464844 506.800781 408.863281 507.65625 408.242188 508.492188 C 407.621094 509.332031 406.976562 510.15625 406.316406 510.960938 C 405.652344 511.769531 404.96875 512.558594 404.269531 513.332031 C 403.566406 514.105469 402.847656 514.863281 402.109375 515.601562 C 401.371094 516.339844 400.617188 517.058594 399.84375 517.757812 C 399.070312 518.460938 398.277344 519.140625 397.472656 519.804688 C 396.664062 520.46875 395.839844 521.109375 395.003906 521.730469 C 394.164062 522.355469 393.3125 522.953125 392.445312 523.535156 C 391.574219 524.117188 390.695312 524.675781 389.796875 525.210938 C 388.902344 525.75 387.996094 526.261719 387.074219 526.757812 C 386.152344 527.25 385.222656 527.71875 384.277344 528.164062 C 383.335938 528.613281 382.382812 529.035156 381.417969 529.4375 C 380.453125 529.835938 379.480469 530.210938 378.496094 530.566406 C 377.511719 530.917969 376.523438 531.246094 375.523438 531.550781 C 374.523438 531.851562 373.519531 532.132812 372.507812 532.386719 C 371.492188 532.640625 370.476562 532.871094 369.453125 533.074219 C 368.429688 533.28125 367.398438 533.460938 366.367188 533.613281 C 365.335938 533.769531 364.296875 533.898438 363.257812 534 C 362.21875 534.105469 361.179688 534.183594 360.136719 534.234375 C 359.09375 534.289062 358.050781 534.3125 357.007812 534.316406 L 274.816406 534.316406 C 272.421875 534.296875 270.226562 534.949219 268.230469 536.265625 L 133.355469 621.710938 L 133.355469 546.183594 C 133.355469 545.382812 133.277344 544.589844 133.121094 543.804688 C 132.964844 543.019531 132.734375 542.257812 132.429688 541.519531 C 132.121094 540.777344 131.746094 540.074219 131.300781 539.410156 C 130.855469 538.746094 130.351562 538.128906 129.785156 537.5625 C 129.21875 536.996094 128.601562 536.492188 127.9375 536.046875 C 127.269531 535.601562 126.570312 535.226562 125.828125 534.917969 C 125.089844 534.613281 124.328125 534.382812 123.542969 534.226562 C 122.757812 534.070312 121.960938 533.992188 121.164062 533.992188 C 119.070312 533.988281 116.988281 533.882812 114.90625 533.675781 C 112.828125 533.46875 110.761719 533.160156 108.710938 532.75 C 106.660156 532.34375 104.636719 531.832031 102.636719 531.226562 C 100.636719 530.617188 98.671875 529.914062 96.738281 529.113281 C 94.808594 528.3125 92.921875 527.417969 91.078125 526.433594 C 89.234375 525.449219 87.445312 524.375 85.707031 523.214844 C 83.96875 522.050781 82.289062 520.808594 80.671875 519.484375 C 79.058594 518.15625 77.507812 516.757812 76.03125 515.28125 C 74.550781 513.800781 73.148438 512.257812 71.820312 510.640625 C 70.492188 509.027344 69.246094 507.351562 68.085938 505.613281 C 66.921875 503.878906 65.84375 502.089844 64.859375 500.246094 C 63.871094 498.402344 62.972656 496.519531 62.171875 494.585938 C 61.367188 492.65625 60.660156 490.691406 60.050781 488.695312 C 59.441406 486.695312 58.929688 484.671875 58.515625 482.621094 C 58.105469 480.570312 57.792969 478.507812 57.585938 476.425781 C 57.375 474.347656 57.265625 472.261719 57.261719 470.171875 L 57.261719 336.519531 C 57.265625 334.429688 57.375 332.34375 57.585938 330.261719 C 57.792969 328.183594 58.105469 326.117188 58.515625 324.070312 C 58.929688 322.019531 59.441406 319.996094 60.050781 317.996094 C 60.660156 315.996094 61.367188 314.03125 62.171875 312.101562 C 62.972656 310.171875 63.871094 308.285156 64.859375 306.445312 C 65.84375 304.601562 66.921875 302.8125 68.085938 301.074219 C 69.246094 299.339844 70.492188 297.664062 71.820312 296.046875 C 73.148438 294.433594 74.550781 292.886719 76.03125 291.410156 C 77.507812 289.933594 79.058594 288.53125 80.671875 287.207031 C 82.289062 285.882812 83.96875 284.636719 85.707031 283.476562 C 87.445312 282.316406 89.234375 281.242188 91.078125 280.257812 C 92.921875 279.269531 94.808594 278.378906 96.738281 277.578125 C 98.671875 276.777344 100.636719 276.074219 102.636719 275.464844 C 104.636719 274.855469 106.660156 274.347656 108.710938 273.9375 C 110.761719 273.53125 112.828125 273.222656 114.90625 273.015625 C 116.988281 272.808594 119.070312 272.703125 121.164062 272.699219 L 356.925781 272.699219 C 357.96875 272.699219 359.011719 272.726562 360.054688 272.78125 C 361.097656 272.832031 362.140625 272.910156 363.179688 273.015625 C 364.21875 273.117188 365.253906 273.246094 366.285156 273.402344 C 367.316406 273.554688 368.347656 273.734375 369.371094 273.9375 C 370.394531 274.144531 371.414062 274.375 372.425781 274.628906 C 373.4375 274.882812 374.441406 275.160156 375.441406 275.464844 C 376.441406 275.769531 377.433594 276.097656 378.414062 276.449219 C 379.398438 276.800781 380.371094 277.179688 381.335938 277.578125 C 382.300781 277.980469 383.253906 278.402344 384.195312 278.851562 C 385.140625 279.296875 386.074219 279.765625 386.992188 280.257812 C 387.914062 280.75 388.820312 281.265625 389.71875 281.804688 C 390.613281 282.339844 391.496094 282.898438 392.363281 283.480469 C 393.230469 284.058594 394.082031 284.660156 394.921875 285.285156 C 395.761719 285.90625 396.582031 286.546875 397.390625 287.210938 C 398.195312 287.875 398.988281 288.554688 399.761719 289.257812 C 400.535156 289.957031 401.289062 290.675781 402.027344 291.414062 C 402.765625 292.152344 403.488281 292.910156 404.1875 293.683594 C 404.890625 294.457031 405.570312 295.246094 406.234375 296.054688 C 406.894531 296.859375 407.539062 297.683594 408.160156 298.523438 C 408.78125 299.359375 409.382812 300.214844 409.964844 301.082031 C 410.542969 301.949219 411.101562 302.832031 411.640625 303.726562 C 412.175781 304.621094 412.691406 305.53125 413.183594 306.449219 C 413.675781 307.371094 414.148438 308.304688 414.59375 309.246094 C 415.039062 310.191406 415.464844 311.144531 415.863281 312.109375 C 416.265625 313.074219 416.640625 314.046875 416.992188 315.027344 C 417.347656 316.011719 417.675781 317.003906 417.976562 318 C 418.28125 319 418.5625 320.007812 418.816406 321.019531 C 419.070312 322.03125 419.300781 323.050781 419.503906 324.074219 C 419.710938 325.097656 419.890625 326.125 420.042969 327.15625 C 420.195312 328.191406 420.324219 329.226562 420.429688 330.265625 C 420.53125 331.304688 420.609375 332.34375 420.664062 333.386719 C 420.714844 334.429688 420.742188 335.472656 420.746094 336.519531 Z M 711.628906 333.347656 C 711.621094 335.4375 711.515625 337.523438 711.304688 339.601562 C 711.09375 341.683594 710.785156 343.746094 710.371094 345.796875 C 709.960938 347.847656 709.449219 349.871094 708.839844 351.871094 C 708.226562 353.867188 707.523438 355.832031 706.71875 357.761719 C 705.914062 359.695312 705.019531 361.578125 704.03125 363.421875 C 703.042969 365.265625 701.96875 367.054688 700.804688 368.789062 C 699.640625 370.527344 698.398438 372.203125 697.070312 373.816406 C 695.742188 375.433594 694.339844 376.976562 692.859375 378.457031 C 691.378906 379.933594 689.832031 381.335938 688.214844 382.660156 C 686.597656 383.984375 684.921875 385.226562 683.183594 386.390625 C 681.445312 387.550781 679.65625 388.625 677.8125 389.609375 C 675.96875 390.59375 674.082031 391.488281 672.148438 392.289062 C 670.21875 393.089844 668.253906 393.792969 666.253906 394.402344 C 664.253906 395.007812 662.226562 395.519531 660.179688 395.925781 C 658.128906 396.335938 656.0625 396.644531 653.984375 396.851562 C 651.902344 397.058594 649.816406 397.164062 647.726562 397.167969 C 646.925781 397.167969 646.132812 397.246094 645.347656 397.402344 C 644.5625 397.558594 643.800781 397.789062 643.0625 398.09375 C 642.320312 398.402344 641.617188 398.777344 640.953125 399.222656 C 640.285156 399.667969 639.671875 400.171875 639.105469 400.738281 C 638.539062 401.304688 638.03125 401.921875 637.589844 402.585938 C 637.144531 403.25 636.765625 403.953125 636.460938 404.695312 C 636.15625 405.433594 635.921875 406.195312 635.765625 406.980469 C 635.609375 407.765625 635.53125 408.558594 635.53125 409.359375 L 635.53125 484.5625 L 500.578125 399.117188 C 498.582031 397.796875 496.386719 397.148438 493.992188 397.167969 L 445.214844 397.167969 L 445.214844 336.519531 C 445.214844 335.074219 445.175781 333.632812 445.105469 332.191406 C 445.03125 330.75 444.925781 329.3125 444.78125 327.875 C 444.640625 326.4375 444.460938 325.007812 444.25 323.578125 C 444.035156 322.152344 443.789062 320.730469 443.507812 319.316406 C 443.222656 317.898438 442.90625 316.492188 442.554688 315.09375 C 442.203125 313.691406 441.816406 312.304688 441.398438 310.921875 C 440.980469 309.542969 440.527344 308.171875 440.039062 306.8125 C 439.550781 305.453125 439.03125 304.109375 438.480469 302.773438 C 437.925781 301.441406 437.339844 300.125 436.722656 298.820312 C 436.105469 297.515625 435.457031 296.226562 434.777344 294.953125 C 434.09375 293.679688 433.382812 292.425781 432.640625 291.1875 C 431.898438 289.949219 431.125 288.730469 430.324219 287.53125 C 429.523438 286.332031 428.691406 285.152344 427.832031 283.992188 C 426.972656 282.835938 426.082031 281.695312 425.167969 280.582031 C 424.253906 279.464844 423.308594 278.375 422.339844 277.304688 C 421.371094 276.234375 420.375 275.191406 419.355469 274.167969 C 418.335938 273.148438 417.289062 272.152344 416.222656 271.183594 C 415.152344 270.214844 414.058594 269.273438 412.945312 268.359375 C 411.828125 267.441406 410.691406 266.554688 409.53125 265.695312 C 408.371094 264.835938 407.191406 264.003906 405.992188 263.199219 C 404.792969 262.398438 403.574219 261.625 402.335938 260.882812 C 401.097656 260.140625 399.84375 259.429688 398.570312 258.75 C 397.300781 258.070312 396.011719 257.417969 394.707031 256.800781 C 393.402344 256.183594 392.082031 255.597656 390.75 255.046875 C 389.417969 254.492188 388.070312 253.972656 386.710938 253.488281 C 385.355469 253 383.984375 252.546875 382.601562 252.125 C 381.222656 251.707031 379.832031 251.320312 378.433594 250.96875 C 377.03125 250.617188 375.625 250.300781 374.210938 250.019531 C 372.792969 249.734375 371.375 249.488281 369.945312 249.277344 C 368.519531 249.0625 367.085938 248.886719 365.648438 248.742188 C 364.214844 248.601562 362.773438 248.492188 361.332031 248.421875 C 359.890625 248.347656 358.449219 248.3125 357.007812 248.308594 L 347.984375 248.308594 L 347.984375 199.53125 C 347.984375 198.488281 348.011719 197.445312 348.0625 196.402344 C 348.117188 195.359375 348.195312 194.316406 348.296875 193.277344 C 348.402344 192.238281 348.53125 191.203125 348.683594 190.171875 C 348.839844 189.140625 349.019531 188.109375 349.222656 187.085938 C 349.425781 186.0625 349.65625 185.042969 349.910156 184.03125 C 350.164062 183.019531 350.445312 182.015625 350.75 181.015625 C 351.054688 180.015625 351.382812 179.027344 351.734375 178.042969 C 352.085938 177.058594 352.460938 176.085938 352.863281 175.121094 C 353.261719 174.15625 353.6875 173.203125 354.132812 172.261719 C 354.578125 171.316406 355.050781 170.382812 355.542969 169.464844 C 356.035156 168.542969 356.550781 167.636719 357.085938 166.738281 C 357.625 165.84375 358.183594 164.964844 358.761719 164.09375 C 359.34375 163.226562 359.945312 162.375 360.566406 161.535156 C 361.1875 160.695312 361.832031 159.875 362.492188 159.066406 C 363.15625 158.261719 363.839844 157.46875 364.539062 156.695312 C 365.242188 155.921875 365.960938 155.167969 366.699219 154.429688 C 367.4375 153.691406 368.191406 152.972656 368.964844 152.269531 C 369.738281 151.566406 370.53125 150.886719 371.335938 150.222656 C 372.144531 149.5625 372.96875 148.917969 373.804688 148.296875 C 374.644531 147.675781 375.496094 147.074219 376.363281 146.492188 C 377.234375 145.914062 378.113281 145.355469 379.011719 144.816406 C 379.90625 144.28125 380.8125 143.765625 381.734375 143.273438 C 382.652344 142.78125 383.585938 142.308594 384.53125 141.863281 C 385.472656 141.417969 386.425781 140.992188 387.390625 140.59375 C 388.355469 140.191406 389.328125 139.816406 390.3125 139.464844 C 391.296875 139.109375 392.285156 138.78125 393.285156 138.480469 C 394.285156 138.175781 395.289062 137.894531 396.300781 137.640625 C 397.316406 137.386719 398.332031 137.15625 399.355469 136.953125 C 400.378906 136.746094 401.410156 136.570312 402.441406 136.414062 C 403.472656 136.261719 404.511719 136.132812 405.546875 136.027344 C 406.585938 135.925781 407.628906 135.847656 408.671875 135.792969 C 409.714844 135.742188 410.757812 135.714844 411.800781 135.714844 L 647.566406 135.714844 C 649.65625 135.714844 651.742188 135.820312 653.820312 136.027344 C 655.902344 136.234375 657.964844 136.542969 660.015625 136.953125 C 662.066406 137.363281 664.089844 137.871094 666.089844 138.476562 C 668.089844 139.085938 670.054688 139.789062 671.988281 140.589844 C 673.917969 141.390625 675.804688 142.285156 677.648438 143.269531 C 679.492188 144.253906 681.28125 145.328125 683.019531 146.488281 C 684.757812 147.652344 686.4375 148.894531 688.054688 150.21875 C 689.667969 151.546875 691.21875 152.945312 692.695312 154.421875 C 694.175781 155.902344 695.578125 157.445312 696.90625 159.0625 C 698.234375 160.675781 699.480469 162.351562 700.644531 164.089844 C 701.804688 165.824219 702.882812 167.613281 703.871094 169.457031 C 704.859375 171.300781 705.753906 173.1875 706.554688 175.117188 C 707.359375 177.046875 708.066406 179.011719 708.675781 181.007812 C 709.285156 183.007812 709.796875 185.03125 710.210938 187.082031 C 710.621094 189.132812 710.933594 191.195312 711.140625 193.277344 C 711.351562 195.355469 711.460938 197.441406 711.464844 199.53125 Z M 711.628906 333.347656 " fill-opacity="1" fill-rule="nonzero"/></g><path fill="#0fa3b1" d="M 249.9375 322.535156 C 249.429688 321.527344 248.792969 320.605469 248.03125 319.773438 C 247.265625 318.941406 246.402344 318.226562 245.441406 317.632812 C 244.480469 317.042969 243.457031 316.589844 242.367188 316.28125 C 241.28125 315.976562 240.171875 315.820312 239.042969 315.820312 C 237.914062 315.820312 236.804688 315.976562 235.71875 316.28125 C 234.632812 316.589844 233.605469 317.042969 232.644531 317.632812 C 231.683594 318.226562 230.820312 318.941406 230.058594 319.773438 C 229.292969 320.605469 228.65625 321.527344 228.148438 322.535156 L 152.949219 470.660156 C 152.539062 471.375 152.207031 472.125 151.949219 472.910156 C 151.6875 473.695312 151.511719 474.5 151.417969 475.320312 C 151.324219 476.140625 151.3125 476.960938 151.382812 477.78125 C 151.457031 478.605469 151.609375 479.414062 151.847656 480.203125 C 152.082031 480.996094 152.394531 481.753906 152.785156 482.484375 C 153.175781 483.210938 153.636719 483.890625 154.164062 484.527344 C 154.691406 485.160156 155.28125 485.734375 155.925781 486.25 C 156.570312 486.765625 157.261719 487.210938 157.996094 487.585938 C 158.734375 487.960938 159.5 488.257812 160.296875 488.476562 C 161.089844 488.695312 161.902344 488.832031 162.726562 488.886719 C 163.550781 488.941406 164.371094 488.914062 165.1875 488.800781 C 166.007812 488.6875 166.804688 488.496094 167.585938 488.21875 C 168.363281 487.945312 169.105469 487.597656 169.816406 487.171875 C 170.523438 486.746094 171.179688 486.253906 171.789062 485.695312 C 172.394531 485.136719 172.941406 484.519531 173.425781 483.851562 C 173.90625 483.179688 174.316406 482.46875 174.65625 481.714844 L 200.589844 430.660156 L 277.496094 430.660156 L 303.105469 481.714844 C 303.445312 482.46875 303.855469 483.179688 304.339844 483.851562 C 304.820312 484.519531 305.367188 485.136719 305.976562 485.695312 C 306.582031 486.253906 307.238281 486.746094 307.949219 487.171875 C 308.65625 487.597656 309.398438 487.945312 310.179688 488.21875 C 310.957031 488.496094 311.753906 488.6875 312.574219 488.800781 C 313.390625 488.914062 314.210938 488.941406 315.035156 488.886719 C 315.859375 488.832031 316.671875 488.695312 317.46875 488.476562 C 318.261719 488.257812 319.03125 487.960938 319.765625 487.585938 C 320.5 487.210938 321.191406 486.765625 321.835938 486.25 C 322.484375 485.734375 323.070312 485.160156 323.597656 484.527344 C 324.128906 483.890625 324.585938 483.210938 324.976562 482.484375 C 325.367188 481.753906 325.679688 480.996094 325.917969 480.203125 C 326.152344 479.414062 326.304688 478.605469 326.378906 477.78125 C 326.449219 476.960938 326.4375 476.140625 326.34375 475.320312 C 326.25 474.5 326.074219 473.695312 325.816406 472.910156 C 325.558594 472.125 325.222656 471.375 324.8125 470.660156 Z M 212.945312 406.273438 L 239.042969 354.972656 L 265.058594 406.273438 Z M 212.945312 406.273438 " fill-opacity="1" fill-rule="nonzero"/><path fill="#0fa3b1" d="M 601.0625 323.671875 L 553.503906 291.640625 C 563.378906 276.027344 571.507812 259.550781 577.894531 242.214844 L 594.152344 242.214844 C 594.953125 242.214844 595.746094 242.136719 596.53125 241.980469 C 597.316406 241.824219 598.078125 241.589844 598.820312 241.285156 C 599.558594 240.976562 600.261719 240.601562 600.925781 240.15625 C 601.59375 239.714844 602.210938 239.207031 602.773438 238.640625 C 603.339844 238.074219 603.847656 237.460938 604.292969 236.792969 C 604.738281 236.128906 605.113281 235.425781 605.417969 234.683594 C 605.726562 233.945312 605.957031 233.183594 606.113281 232.398438 C 606.269531 231.613281 606.347656 230.820312 606.347656 230.019531 C 606.347656 229.21875 606.269531 228.425781 606.113281 227.640625 C 605.957031 226.855469 605.726562 226.089844 605.417969 225.351562 C 605.113281 224.613281 604.738281 223.910156 604.292969 223.242188 C 603.847656 222.578125 603.339844 221.960938 602.773438 221.394531 C 602.210938 220.828125 601.59375 220.324219 600.925781 219.878906 C 600.261719 219.433594 599.558594 219.058594 598.820312 218.75 C 598.078125 218.445312 597.316406 218.214844 596.53125 218.058594 C 595.746094 217.902344 594.953125 217.824219 594.152344 217.824219 L 544.886719 217.824219 L 544.886719 192.457031 C 544.886719 191.65625 544.808594 190.863281 544.652344 190.078125 C 544.496094 189.292969 544.265625 188.53125 543.957031 187.792969 C 543.652344 187.050781 543.277344 186.347656 542.832031 185.683594 C 542.386719 185.019531 541.878906 184.402344 541.3125 183.835938 C 540.746094 183.269531 540.132812 182.765625 539.464844 182.320312 C 538.800781 181.875 538.097656 181.5 537.359375 181.191406 C 536.617188 180.886719 535.855469 180.65625 535.070312 180.5 C 534.285156 180.34375 533.492188 180.265625 532.691406 180.265625 C 531.890625 180.265625 531.097656 180.34375 530.3125 180.5 C 529.527344 180.65625 528.765625 180.886719 528.023438 181.191406 C 527.285156 181.5 526.582031 181.875 525.917969 182.320312 C 525.25 182.765625 524.632812 183.269531 524.066406 183.835938 C 523.503906 184.402344 522.996094 185.019531 522.550781 185.683594 C 522.105469 186.347656 521.730469 187.050781 521.425781 187.792969 C 521.117188 188.53125 520.886719 189.292969 520.730469 190.078125 C 520.574219 190.863281 520.496094 191.65625 520.496094 192.457031 L 520.496094 217.824219 L 465.703125 217.824219 C 464.902344 217.824219 464.109375 217.902344 463.324219 218.058594 C 462.539062 218.214844 461.773438 218.445312 461.035156 218.75 C 460.296875 219.058594 459.59375 219.433594 458.925781 219.878906 C 458.261719 220.324219 457.644531 220.828125 457.078125 221.394531 C 456.511719 221.960938 456.007812 222.578125 455.5625 223.242188 C 455.117188 223.910156 454.742188 224.613281 454.433594 225.351562 C 454.128906 226.089844 453.898438 226.855469 453.742188 227.640625 C 453.585938 228.425781 453.507812 229.21875 453.507812 230.019531 C 453.507812 230.820312 453.585938 231.613281 453.742188 232.398438 C 453.898438 233.183594 454.128906 233.945312 454.433594 234.683594 C 454.742188 235.425781 455.117188 236.128906 455.5625 236.792969 C 456.007812 237.460938 456.511719 238.074219 457.078125 238.640625 C 457.644531 239.207031 458.261719 239.714844 458.925781 240.15625 C 459.59375 240.601562 460.296875 240.976562 461.035156 241.285156 C 461.773438 241.589844 462.539062 241.824219 463.324219 241.980469 C 464.109375 242.136719 464.902344 242.214844 465.703125 242.214844 L 551.957031 242.214844 C 546.75 254.648438 540.519531 266.542969 533.261719 277.902344 L 502.609375 257.253906 C 501.933594 256.804688 501.21875 256.425781 500.464844 256.117188 C 499.710938 255.808594 498.9375 255.574219 498.140625 255.417969 C 497.339844 255.265625 496.535156 255.1875 495.722656 255.191406 C 494.90625 255.195312 494.101562 255.277344 493.304688 255.4375 C 492.507812 255.601562 491.734375 255.839844 490.984375 256.152344 C 490.234375 256.46875 489.523438 256.851562 488.847656 257.308594 C 488.171875 257.761719 487.550781 258.277344 486.976562 258.855469 C 486.40625 259.433594 485.894531 260.0625 485.445312 260.742188 C 484.996094 261.417969 484.617188 262.136719 484.3125 262.886719 C 484.003906 263.640625 483.773438 264.417969 483.617188 265.214844 C 483.460938 266.015625 483.386719 266.820312 483.390625 267.632812 C 483.394531 268.445312 483.480469 269.253906 483.640625 270.050781 C 483.804688 270.847656 484.042969 271.621094 484.359375 272.367188 C 484.675781 273.117188 485.058594 273.832031 485.515625 274.503906 C 485.972656 275.179688 486.488281 275.800781 487.066406 276.371094 C 487.644531 276.945312 488.273438 277.453125 488.953125 277.902344 L 519.195312 298.226562 C 509.714844 310.214844 499.226562 321.242188 487.734375 331.316406 C 487.132812 331.847656 486.59375 332.4375 486.109375 333.078125 C 485.625 333.71875 485.210938 334.398438 484.859375 335.121094 C 484.511719 335.84375 484.234375 336.59375 484.03125 337.371094 C 483.832031 338.148438 483.707031 338.9375 483.660156 339.738281 C 483.613281 340.542969 483.644531 341.339844 483.757812 342.132812 C 483.867188 342.929688 484.054688 343.707031 484.316406 344.464844 C 484.582031 345.222656 484.914062 345.949219 485.320312 346.640625 C 485.726562 347.332031 486.195312 347.980469 486.730469 348.578125 C 487.265625 349.179688 487.851562 349.722656 488.492188 350.207031 C 489.128906 350.691406 489.8125 351.109375 490.535156 351.457031 C 491.257812 351.808594 492.003906 352.085938 492.78125 352.289062 C 493.558594 352.492188 494.347656 352.617188 495.148438 352.664062 C 495.949219 352.710938 496.75 352.683594 497.542969 352.574219 C 498.339844 352.464844 499.117188 352.277344 499.875 352.015625 C 500.632812 351.753906 501.359375 351.417969 502.050781 351.015625 C 502.746094 350.609375 503.390625 350.140625 503.992188 349.605469 C 517.066406 338.148438 528.964844 325.574219 539.683594 311.886719 L 587.648438 344.402344 C 589.6875 345.777344 591.9375 346.453125 594.394531 346.4375 C 595.042969 346.433594 595.6875 346.382812 596.324219 346.277344 C 596.964844 346.175781 597.589844 346.019531 598.203125 345.816406 C 598.816406 345.613281 599.410156 345.363281 599.984375 345.0625 C 600.558594 344.765625 601.105469 344.421875 601.625 344.039062 C 602.144531 343.652344 602.632812 343.226562 603.085938 342.765625 C 603.535156 342.304688 603.949219 341.808594 604.324219 341.277344 C 604.695312 340.75 605.027344 340.195312 605.3125 339.617188 C 605.597656 339.035156 605.832031 338.433594 606.023438 337.816406 C 606.210938 337.199219 606.351562 336.566406 606.441406 335.925781 C 606.53125 335.285156 606.570312 334.644531 606.554688 333.996094 C 606.542969 333.347656 606.480469 332.707031 606.363281 332.070312 C 606.25 331.433594 606.082031 330.808594 605.867188 330.199219 C 605.65625 329.589844 605.394531 329 605.085938 328.429688 C 604.777344 327.863281 604.425781 327.320312 604.03125 326.808594 C 603.636719 326.296875 603.203125 325.816406 602.734375 325.375 C 602.261719 324.929688 601.761719 324.523438 601.226562 324.160156 Z M 601.0625 323.671875 " fill-opacity="1" fill-rule="nonzero"/></svg>